<svg width="0" height="0" dislpay="none">
	<symbol id="logo" style="fill-rule:evenodd;clip-rule:evenodd;stroke-linejoin:round;stroke-miterlimit:1.41421;" viewBox="0 0 150 143">
    	<g id="card"><path id="secondary-card-body" d="M144,0l-72.053,6.72l-71.947,-6.72l0,136.896l72.138,-8.602l71.862,8.602l0,-136.896Z"/><rect id="primary-card-spine" x="71.6" y="38.601" width="0.8" height="89.959"/></g><g id="people-and-spark"><g id="spark"><path id="primary-outer-spark" d="M73.984,25.355l0.438,3.207l9.206,-10.248l-1.613,4.457l-2.743,7.583l10.48,-5.271l11.36,-5.713l-2.976,2.335l-8.386,6.554l-7.105,5.536l2.025,-0.081l13.332,-0.512l-6.699,2.172l-7.997,2.581l11.575,3.584l0.279,0.086l-0.017,0.055l-0.017,0.056l-0.058,-0.017l-0.229,-0.068l-12.47,-3.684l6.853,-2.311l5.556,-1.865l-12.194,0.595l-1.761,0.083l5.549,-4.393l6.443,-5.085l2.36,-1.851l-8.925,4.488l-8.235,4.142l2.351,-6.497l1.381,-3.818l-7.815,8.699l-0.358,-2.63l-1.877,-13.754l-0.694,5.092l-1.539,11.292l-7.814,-8.699l3.732,10.315l-2.851,-1.434l-13.831,-6.956l-0.478,-0.24l9.48,7.439l4.974,3.928l-0.023,-0.001l-7.09,-0.341l-6.733,-0.335l6.733,2.269l5.511,1.868l-11.971,3.52l-0.191,0.055l-0.055,0.017l-0.017,-0.056l-0.017,-0.055l0.056,-0.017l0.183,-0.058l10.982,-3.419l-6.55,-2.104l-8.311,-2.687l7.283,0.273l8.155,0.32l0.027,0.001l-6.406,-5.004l-11.957,-9.383l21.84,10.984l-4.356,-12.04l9.206,10.248l1.876,-13.766l0.845,-6.207l2.288,16.766Z"/><path id="primary-inner-spark" d="M72.454,32.865l0.189,1.354l3.607,-4.186l-0.537,1.563l-1.146,3.338l3.783,-1.984l4.923,-2.583l-0.771,0.631l-3.299,2.68l-3.303,2.674l0.163,-0.007l5.788,-0.244l-1.963,0.662l-3.803,1.273l3.707,1.063l0.083,0.024l0.024,0.042l-0.042,0.023l-0.088,-0.024l-4.185,-1.112l3.043,-1.086l1.5,-0.532l-5.089,0.294l-0.133,0.007l2.291,-1.9l2.225,-1.835l0.548,-0.448l-3.453,1.811l-2.654,1.392l0.909,-2.647l0.426,-1.24l-2.827,3.281l-0.141,-1.004l-0.711,-5.072l-0.208,1.667l-0.55,4.417l-1.591,-1.799l-1.285,-1.453l1.393,3.873l-0.48,-0.246l-4.887,-2.496l-0.784,-0.4l2.801,2.235l1.742,1.404l0.628,0.51l-1.706,-0.081l-3.484,-0.173l1.578,0.545l2.909,1.014l-3.548,0.974l-0.073,0.02l-0.041,-0.023l0.022,-0.041l0.069,-0.021l3.062,-0.919l-3.739,-1.203l-2.136,-0.693l3.899,0.121l2.091,0.071l-0.916,-0.723l-2.553,-2.023l-3.951,-3.153l8.779,4.485l-1.758,-4.886l3.671,4.152l0.743,-5.955l0.28,-2.248l0.959,6.84Z"/></g><g id="person-right"><path id="primary-body-right" d="M142.56,71.601c0,0 -18.481,-24.388 -68.53,-31.873c22.371,10.798 25.771,12.462 24.174,20.032c-2.652,12.571 -25.363,67.365 -25.363,67.365c0,0 20.989,-39.398 25.292,-37.715c3.307,1.294 1.845,41.056 1.845,41.056c0,0 8.548,-54.885 15.645,-64.507c5.903,-8.003 26.937,5.642 26.937,5.642Z"/><ellipse id="primary-head-right" cx="111.782" cy="42.488" rx="5.52" ry="5.511"/></g><g id="person-left"><path id="primary-body-left" d="M1.321,71.601c0,0 18.481,-24.388 68.529,-31.873c-22.37,10.798 -25.77,12.462 -24.173,20.032c2.651,12.571 25.363,67.365 25.363,67.365c0,0 -20.99,-39.398 -25.292,-37.715c-3.307,1.294 -1.845,41.056 -1.845,41.056c0,0 -8.548,-54.885 -15.645,-64.507c-5.903,-8.003 -26.937,5.642 -26.937,5.642Z"/><ellipse id="primary-head-left" cx="32.099" cy="42.488" rx="5.52" ry="5.511"/></g></g>
	</symbol>
<symbol id="home" viewBox="0 0 300 300">
	<g id="primary.-stroke.-home.-body" transform="matrix(1.73097,0,0,1.6689,24.8948,29.6789)">
        <path d="M24,48L24,144L47.946,144L48.134,96L96.222,96L96.289,144L120,144L120,48" style="fill:none;"/>
    </g>
    <g id="primary.-stroke.-home.-roof" transform="matrix(1.73097,0,0,1.6689,24.8948,29.6789)">
        <path d="M2.88,68.16L72,0.48L141.6,68.16" style="fill:none;"/>
    </g>
</symbol>
<symbol id="about" viewBox="0 0 300 300">
	    <g transform="matrix(0.737574,0,0,0.737574,7.03168,41.2421)">
        <path d="M161.016,91.737L228,92.029C228,92.029 174.879,201.732 198,236C212.72,257.817 259.839,236.398 259.839,236.398L259,283C259,283 200.872,313.977 159,268C120.277,225.481 161.016,91.737 161.016,91.737Z" style="fill:none;"/>
    </g>
    <g transform="matrix(0.650826,0,0,0.650826,61.6207,37.1958)">
        <circle cx="136.306" cy="51.306" r="38.306" style="fill:none;"/>
    </g>
    <g transform="matrix(0.805369,0,0,0.805369,30,28.3893)">
        <path d="M298,76.5C298,35.382 264.618,2 223.5,2L74.5,2C33.382,2 0,35.382 0,76.5L0,225.5C0,266.618 33.382,300 74.5,300L223.5,300C264.618,300 298,266.618 298,225.5L298,76.5Z" style="fill:none;"/>
    </g>
</symbol>
	<symbol id="contact" viewBox="0 0 300 300">
	<g transform="matrix(0.8,0,0,0.972414,30,-36.3724)">
	    <path d="M300,72.708C300,65.143 292.534,59 283.337,59L16.663,59C7.466,59 0,65.143 0,72.708L0,219.292C0,226.857 7.466,233 16.663,233L283.337,233C292.534,233 300,226.857 300,219.292L300,72.708Z" style="fill:none;"/>
	</g>
	<g id="Curve" transform="matrix(0.966097,0,0,1.5,-1.35381,31.5)">
	    <path d="M43.33,105.6L124.655,49.4L43.33,105.6Z" style="fill:none;"/>
	</g>
	<g id="Curve1" transform="matrix(0.966097,0,0,1.5,-1.35381,31.5)">
	    <path d="M188.754,49.254L270,105.6L188.754,49.254Z" style="fill:none;"/>
	</g>
	<g id="Curve2" transform="matrix(0.966097,0,0,-1.5,-1.35381,179.4)">
	    <path d="M43.33,104.933L156.665,27L270,104.933" style="fill:none;"/>
	</g>
</symbol>
<symbol id="menu" class="menu-btn" viewBox="0 0 300 300">
	<path d="M30,30L270,30"/>
	<path d="M30,150L270,150"/>
	<path d="M30,270L270,270"/>
</symbol>
<symbol id="close" class="menu-btn" viewBox="0 0 300 300">
	<g transform="matrix(-1,0,-0,1,300,0)">
	    <path d="M30,270L270,30"/>
	</g>
	<path d="M30,270L270,30"/>
	
</symbol>
</svg>
